{
  "accessors": [
    {
      "bufferView": 2,
      "componentType": 5126,
      "count": 670,
      "max": [
        1.6176202297210693,
        -2.080878496170044,
        4.125117778778076
      ],
      "min": [
        -1.617178201675415,
        -4.071788311004639,
        3.6537768840789795
      ],
      "type": "VEC3"
    },
    {
      "bufferView": 2,
      "byteOffset": 8040,
      "componentType": 5126,
      "count": 670,
      "max": [
        0.999748945236206,
        0.9971277117729187,
        0.9995392560958862
      ],
      "min": [
        -0.9991759657859802,
        -0.9986974000930786,
        -0.9991336464881897
      ],
      "type": "VEC3"
    },
    {
      "bufferView": 1,
      "componentType": 5126,
      "count": 670,
      "max": [
        1.000000238418579,
        1.0000001192092896
      ],
      "min": [
        0.0,
        -1.1920928955078125e-07
      ],
      "type": "VEC2"
    },
    {
      "bufferView": 0,
      "componentType": 5125,
      "count": 2784,
      "type": "SCALAR"
    },
    {
      "bufferView": 2,
      "byteOffset": 16080,
      "componentType": 5126,
      "count": 1983,
      "max": [
        0.5054566860198975,
        -0.06590694934129715,
        0.5198292136192322
      ],
      "min": [
        -0.5061448812484741,
        -0.8578820824623108,
        -0.5433552265167236
      ],
      "type": "VEC3"
    },
    {
      "bufferView": 2,
      "byteOffset": 39876,
      "componentType": 5126,
      "count": 1983,
      "max": [
        0.9999947547912598,
        0.9999402761459351,
        0.9990458488464355
      ],
      "min": [
        -0.9999979734420776,
        -0.9997394680976868,
        -0.999522864818573
      ],
      "type": "VEC3"
    },
    {
      "bufferView": 1,
      "byteOffset": 5360,
      "componentType": 5126,
      "count": 1983,
      "max": [
        1.000000238418579,
        1.0000001192092896
      ],
      "min": [
        0.0,
        -1.1920928955078125e-07
      ],
      "type": "VEC2"
    },
    {
      "bufferView": 0,
      "byteOffset": 11136,
      "componentType": 5125,
      "count": 10656,
      "type": "SCALAR"
    },
    {
      "bufferView": 2,
      "byteOffset": 63672,
      "componentType": 5126,
      "count": 13585,
      "max": [
        0.9844903945922852,
        0.9807555675506592,
        0.9845072031021118
      ],
      "min": [
        -0.9845067262649536,
        -0.44331416487693787,
        -0.9845067262649536
      ],
      "type": "VEC3"
    },
    {
      "bufferView": 2,
      "byteOffset": 226692,
      "componentType": 5126,
      "count": 13585,
      "max": [
        0.9997690320014954,
        0.9999938607215881,
        0.9998820424079895
      ],
      "min": [
        -0.9998816847801208,
        -1.0,
        -0.9998763799667358
      ],
      "type": "VEC3"
    },
    {
      "bufferView": 1,
      "byteOffset": 21224,
      "componentType": 5126,
      "count": 13585,
      "max": [
        1.0004557371139526,
        1.0635086297988892
      ],
      "min": [
        0.0025232136249542236,
        0.004271388053894043
      ],
      "type": "VEC2"
    },
    {
      "bufferView": 0,
      "byteOffset": 53760,
      "componentType": 5125,
      "count": 79830,
      "type": "SCALAR"
    }
  ],
  "asset": {
    "extras": {
      "author": "smarthug (https://sketchfab.com/smarthug)",
      "license": "CC-BY-4.0 (http://creativecommons.org/licenses/by/4.0/)",
      "source": "https://sketchfab.com/3d-models/mario-super-mushroom-bfecb0aee2984ddca543ea90dcb270cc",
      "title": "Mario Super Mushroom"
    },
    "generator": "Sketchfab-13.42.0",
    "version": "2.0"
  },
  "bufferViews": [
    {
      "buffer": 0,
      "byteLength": 373080,
      "name": "floatBufferViews",
      "target": 34963
    },
    {
      "buffer": 0,
      "byteLength": 129904,
      "byteOffset": 373080,
      "byteStride": 8,
      "name": "floatBufferViews",
      "target": 34962
    },
    {
      "buffer": 0,
      "byteLength": 389712,
      "byteOffset": 502984,
      "byteStride": 12,
      "name": "floatBufferViews",
      "target": 34962
    }
  ],
  "buffers": [
    {
      "byteLength": 892696,
      "uri": "scene.bin"
    }
  ],
  "images": [
    {
      "uri": "textures/head_baseColor.png"
    }
  ],
  "materials": [
    {
      "doubleSided": true,
      "name": "material",
      "pbrMetallicRoughness": {
        "baseColorFactor": [
          0.0185002,
          0.0152085,
          0.0137021,
          1.0
        ],
        "roughnessFactor": 0.0
      }
    },
    {
      "doubleSided": true,
      "name": "face",
      "pbrMetallicRoughness": {
        "baseColorFactor": [
          0.977848,
          0.578513,
          0.226362,
          1.0
        ],
        "metallicFactor": 0.0,
        "roughnessFactor": 0.5
      }
    },
    {
      "doubleSided": true,
      "name": "head",
      "pbrMetallicRoughness": {
        "baseColorTexture": {
          "index": 0
        },
        "metallicFactor": 0.0,
        "roughnessFactor": 0.406061
      }
    }
  ],
  "meshes": [
    {
      "name": "Object_0",
      "primitives": [
        {
          "attributes": {
            "NORMAL": 1,
            "POSITION": 0,
            "TEXCOORD_0": 2
          },
          "indices": 3,
          "material": 0,
          "mode": 4
        }
      ]
    },
    {
      "name": "Object_1",
      "primitives": [
        {
          "attributes": {
            "NORMAL": 5,
            "POSITION": 4,
            "TEXCOORD_0": 6
          },
          "indices": 7,
          "material": 1,
          "mode": 4
        }
      ]
    },
    {
      "name": "Object_2",
      "primitives": [
        {
          "attributes": {
            "NORMAL": 9,
            "POSITION": 8,
            "TEXCOORD_0": 10
          },
          "indices": 11,
          "material": 2,
          "mode": 4
        }
      ]
    }
  ],
  "nodes": [
    {
      "children": [
        1
      ],
      "matrix": [
        1.0,
        0.0,
        0.0,
        0.0,
        0.0,
        2.220446049250313e-16,
        -1.0,
        0.0,
        0.0,
        1.0,
        2.220446049250313e-16,
        0.0,
        0.0,
        0.0,
        0.0,
        1.0
      ],
      "name": "Sketchfab_model"
    },
    {
      "children": [
        2
      ],
      "name": "root"
    },
    {
      "children": [
        3,
        5,
        7
      ],
      "matrix": [
        1.0,
        0.0,
        0.0,
        0.0,
        0.0,
        2.220446049250313e-16,
        1.0,
        0.0,
        0.0,
        -1.0,
        2.220446049250313e-16,
        0.0,
        0.0,
        0.0,
        0.0,
        1.0
      ],
      "name": "GLTF_SceneRootNode"
    },
    {
      "children": [
        4
      ],
      "matrix": [
        0.41327011585235596,
        0.0,
        0.0,
        0.0,
        0.0,
        0.41327011585235596,
        0.0,
        0.0,
        0.0,
        0.0,
        0.41327011585235596,
        0.0,
        0.0,
        0.0,
        0.0,
        1.0
      ],
      "name": "best_eye_0"
    },
    {
      "mesh": 0,
      "name": "Object_4"
    },
    {
      "children": [
        6
      ],
      "matrix": [
        3.0234951972961426,
        0.0,
        -0.0,
        0.0,
        -0.0,
        2.9680649975915356,
        -0.5762877851267326,
        0.0,
        0.0,
        0.5762877851267326,
        2.9680649975915356,
        0.0,
        0.0,
        0.1734027862548828,
        -0.0798426941037178,
        1.0
      ],
      "name": "best_face_1"
    },
    {
      "mesh": 1,
      "name": "Object_6"
    },
    {
      "children": [
        8
      ],
      "matrix": [
        2.5928399562835693,
        0.0,
        -0.0,
        0.0,
        -0.0,
        2.504308334725146,
        -0.8136991463278062,
        0.0,
        0.0,
        0.8012315747509989,
        2.465937096959336,
        0.0,
        0.0,
        0.0,
        0.0,
        1.0
      ],
      "name": "best_head_2"
    },
    {
      "mesh": 2,
      "name": "Object_8"
    }
  ],
  "samplers": [
    {
      "magFilter": 9729,
      "minFilter": 9987,
      "wrapS": 33071,
      "wrapT": 33071
    }
  ],
  "scene": 0,
  "scenes": [
    {
      "name": "Sketchfab_Scene",
      "nodes": [
        0
      ]
    }
  ],
  "textures": [
    {
      "sampler": 0,
      "source": 0
    }
  ]
}
