{
  "accessors": [
    {
      "bufferView": 2,
      "componentType": 5126,
      "count": 790,
      "max": [
        31.829082489013672,
        -29.788562774658203,
        18.256895065307617
      ],
      "min": [
        -32.867652893066406,
        -41.70504379272461,
        -8.940267562866211
      ],
      "type": "VEC3"
    },
    {
      "bufferView": 2,
      "byteOffset": 9480,
      "componentType": 5126,
      "count": 790,
      "max": [
        1.0,
        1.0,
        1.0
      ],
      "min": [
        -1.0,
        -0.9999600052833557,
        -1.0
      ],
      "type": "VEC3"
    },
    {
      "bufferView": 1,
      "componentType": 5126,
      "count": 790,
      "max": [
        1.000000238418579,
        1.0
      ],
      "min": [
        0.0,
        0.3125000596046448
      ],
      "type": "VEC2"
    },
    {
      "bufferView": 0,
      "componentType": 5125,
      "count": 4032,
      "type": "SCALAR"
    },
    {
      "bufferView": 2,
      "byteOffset": 18960,
      "componentType": 5126,
      "count": 394,
      "max": [
        28.125255584716797,
        -41.32662582397461,
        15.96512222290039
      ],
      "min": [
        -29.16382598876953,
        -41.88663101196289,
        -6.648494243621826
      ],
      "type": "VEC3"
    },
    {
      "bufferView": 2,
      "byteOffset": 23688,
      "componentType": 5126,
      "count": 394,
      "max": [
        0.10096792876720428,
        -0.9948896765708923,
        0.09377869218587875
      ],
      "min": [
        -0.10096796602010727,
        -0.9999834895133972,
        -0.08862008899450302
      ],
      "type": "VEC3"
    },
    {
      "bufferView": 1,
      "byteOffset": 6320,
      "componentType": 5126,
      "count": 394,
      "max": [
        1.000000238418579,
        0.3125000596046448
      ],
      "min": [
        0.0,
        -1.1920928955078125e-07
      ],
      "type": "VEC2"
    },
    {
      "bufferView": 0,
      "byteOffset": 16128,
      "componentType": 5125,
      "count": 1728,
      "type": "SCALAR"
    },
    {
      "bufferView": 2,
      "byteOffset": 28416,
      "componentType": 5126,
      "count": 264,
      "max": [
        25.56212043762207,
        28.092973709106445,
        26.967266082763672
      ],
      "min": [
        -26.600690841674805,
        12.345129013061523,
        23.230674743652344
      ],
      "type": "VEC3"
    },
    {
      "bufferView": 2,
      "byteOffset": 31584,
      "componentType": 5126,
      "count": 264,
      "max": [
        0.9595916271209717,
        0.9930217862129211,
        1.0
      ],
      "min": [
        -0.9595916271209717,
        -0.9999997615814209,
        -1.0
      ],
      "type": "VEC3"
    },
    {
      "bufferView": 1,
      "byteOffset": 9472,
      "componentType": 5126,
      "count": 264,
      "max": [
        -4.747422218322754,
        26.821062088012695
      ],
      "min": [
        -26.600690841674805,
        11.073217391967773
      ],
      "type": "VEC2"
    },
    {
      "bufferView": 0,
      "byteOffset": 23040,
      "componentType": 5125,
      "count": 504,
      "type": "SCALAR"
    },
    {
      "bufferView": 2,
      "byteOffset": 34752,
      "componentType": 5126,
      "count": 768,
      "max": [
        28.195547103881836,
        16.372346878051758,
        35.31260299682617
      ],
      "min": [
        -29.23411750793457,
        -13.335541725158691,
        17.14991569519043
      ],
      "type": "VEC3"
    },
    {
      "bufferView": 2,
      "byteOffset": 43968,
      "componentType": 5126,
      "count": 768,
      "max": [
        0.9997613430023193,
        0.993720531463623,
        1.0
      ],
      "min": [
        -0.9997613430023193,
        -0.9935983419418335,
        -1.0
      ],
      "type": "VEC3"
    },
    {
      "bufferView": 1,
      "byteOffset": 11584,
      "componentType": 5126,
      "count": 768,
      "max": [
        1.5,
        15.804218292236328
      ],
      "min": [
        -21.802587509155273,
        -2.5691285133361816
      ],
      "type": "VEC2"
    },
    {
      "bufferView": 0,
      "byteOffset": 25056,
      "componentType": 5125,
      "count": 3936,
      "type": "SCALAR"
    },
    {
      "bufferView": 2,
      "byteOffset": 53184,
      "componentType": 5126,
      "count": 896,
      "max": [
        15.522265434265137,
        11.737977027893066,
        37.93446350097656
      ],
      "min": [
        -16.560836791992188,
        3.5596237182617188,
        28.963293075561523
      ],
      "type": "VEC3"
    },
    {
      "bufferView": 2,
      "byteOffset": 63936,
      "componentType": 5126,
      "count": 896,
      "max": [
        0.9999996423721313,
        0.9935930371284485,
        1.0
      ],
      "min": [
        -0.9999996423721313,
        -0.9935930371284485,
        -1.0
      ],
      "type": "VEC3"
    },
    {
      "bufferView": 1,
      "byteOffset": 17728,
      "componentType": 5126,
      "count": 896,
      "max": [
        -7.104457855224609,
        11.169853210449219
      ],
      "min": [
        -14.225464820861816,
        2.9915003776550293
      ],
      "type": "VEC2"
    },
    {
      "bufferView": 0,
      "byteOffset": 40800,
      "componentType": 5125,
      "count": 5040,
      "type": "SCALAR"
    },
    {
      "bufferView": 2,
      "byteOffset": 74688,
      "componentType": 5126,
      "count": 2614,
      "max": [
        36.65790557861328,
        29.164457321166992,
        37.71586608886719
      ],
      "min": [
        -37.69647979736328,
        -22.43877601623535,
        -37.696842193603516
      ],
      "type": "VEC3"
    },
    {
      "bufferView": 2,
      "byteOffset": 106056,
      "componentType": 5126,
      "count": 2614,
      "max": [
        0.9990479946136475,
        1.0,
        0.9990489482879639
      ],
      "min": [
        -1.0,
        -1.0,
        -0.9989777207374573
      ],
      "type": "VEC3"
    },
    {
      "bufferView": 1,
      "byteOffset": 24896,
      "componentType": 5126,
      "count": 2614,
      "max": [
        0.06182160601019859,
        29.164459228515625
      ],
      "min": [
        -37.69647979736328,
        -22.43877601623535
      ],
      "type": "VEC2"
    },
    {
      "bufferView": 0,
      "byteOffset": 60960,
      "componentType": 5125,
      "count": 15666,
      "type": "SCALAR"
    },
    {
      "bufferView": 2,
      "byteOffset": 137424,
      "componentType": 5126,
      "count": 210,
      "max": [
        16.12809944152832,
        -21.611906051635742,
        17.24143409729004
      ],
      "min": [
        -17.16666603088379,
        -36.23331069946289,
        -18.42072296142578
      ],
      "type": "VEC3"
    },
    {
      "bufferView": 2,
      "byteOffset": 139944,
      "componentType": 5126,
      "count": 210,
      "max": [
        0.9968125224113464,
        1.0,
        0.9957926273345947
      ],
      "min": [
        -0.9968125820159912,
        -1.0,
        -0.9957315325737
      ],
      "type": "VEC3"
    },
    {
      "bufferView": 1,
      "byteOffset": 45808,
      "componentType": 5126,
      "count": 210,
      "max": [
        -1.9590668678283691,
        -21.18340492248535
      ],
      "min": [
        -17.166667938232422,
        -35.8048095703125
      ],
      "type": "VEC2"
    },
    {
      "bufferView": 0,
      "byteOffset": 123624,
      "componentType": 5125,
      "count": 1248,
      "type": "SCALAR"
    }
  ],
  "asset": {
    "extras": {
      "author": "Anthony Yanez (https://sketchfab.com/paulyanez)",
      "license": "CC-BY-4.0 (http://creativecommons.org/licenses/by/4.0/)",
      "source": "https://sketchfab.com/3d-models/goomba-super-mario-bros-98cbb2e04bd44fb9abdfe6feb8e15966",
      "title": "Goomba (Super Mario Bros)"
    },
    "generator": "Sketchfab-12.66.0",
    "version": "2.0"
  },
  "bufferViews": [
    {
      "buffer": 0,
      "byteLength": 128616,
      "name": "floatBufferViews",
      "target": 34963
    },
    {
      "buffer": 0,
      "byteLength": 47488,
      "byteOffset": 128616,
      "byteStride": 8,
      "name": "floatBufferViews",
      "target": 34962
    },
    {
      "buffer": 0,
      "byteLength": 142464,
      "byteOffset": 176104,
      "byteStride": 12,
      "name": "floatBufferViews",
      "target": 34962
    }
  ],
  "buffers": [
    {
      "byteLength": 318568,
      "uri": "scene.bin"
    }
  ],
  "materials": [
    {
      "doubleSided": true,
      "name": "14_-_Default",
      "pbrMetallicRoughness": {
        "baseColorFactor": [
          0.278431,
          0.184314,
          0.12549,
          1.0
        ],
        "roughnessFactor": 0.8929713596
      }
    },
    {
      "doubleSided": true,
      "name": "07_-_Default",
      "pbrMetallicRoughness": {
        "baseColorFactor": [
          0.839216,
          0.768628,
          0.580392,
          1.0
        ],
        "metallicFactor": 0.0,
        "roughnessFactor": 0.8929713596
      }
    },
    {
      "doubleSided": true,
      "name": "01_-_Default",
      "pbrMetallicRoughness": {
        "baseColorFactor": [
          0.0,
          0.0,
          0.0,
          1.0
        ],
        "roughnessFactor": 0.8929713596
      }
    },
    {
      "doubleSided": true,
      "name": "15_-_Default",
      "pbrMetallicRoughness": {
        "roughnessFactor": 0.8810792885000001
      }
    },
    {
      "doubleSided": true,
      "name": "04_-_Default",
      "pbrMetallicRoughness": {
        "baseColorFactor": [
          0.0,
          0.0,
          0.0,
          1.0
        ],
        "roughnessFactor": 0.8929713596
      }
    },
    {
      "doubleSided": true,
      "name": "10_-_Default",
      "pbrMetallicRoughness": {
        "baseColorFactor": [
          0.427451,
          0.239216,
          0.0901961,
          1.0
        ],
        "metallicFactor": 0.7151295732
      }
    },
    {
      "doubleSided": true,
      "name": "11_-_Default",
      "pbrMetallicRoughness": {
        "baseColorFactor": [
          0.705882,
          0.647059,
          0.490196,
          1.0
        ],
        "roughnessFactor": 0.8929713596
      }
    }
  ],
  "meshes": [
    {
      "name": "Goomba_14 - Default_0",
      "primitives": [
        {
          "attributes": {
            "NORMAL": 1,
            "POSITION": 0,
            "TEXCOORD_0": 2
          },
          "indices": 3,
          "material": 0,
          "mode": 4
        }
      ]
    },
    {
      "name": "Goomba_07 - Default_0",
      "primitives": [
        {
          "attributes": {
            "NORMAL": 5,
            "POSITION": 4,
            "TEXCOORD_0": 6
          },
          "indices": 7,
          "material": 1,
          "mode": 4
        }
      ]
    },
    {
      "name": "Goomba_01 - Default_0",
      "primitives": [
        {
          "attributes": {
            "NORMAL": 9,
            "POSITION": 8,
            "TEXCOORD_0": 10
          },
          "indices": 11,
          "material": 2,
          "mode": 4
        }
      ]
    },
    {
      "name": "Goomba_15 - Default_0",
      "primitives": [
        {
          "attributes": {
            "NORMAL": 13,
            "POSITION": 12,
            "TEXCOORD_0": 14
          },
          "indices": 15,
          "material": 3,
          "mode": 4
        }
      ]
    },
    {
      "name": "Goomba_04 - Default_0",
      "primitives": [
        {
          "attributes": {
            "NORMAL": 17,
            "POSITION": 16,
            "TEXCOORD_0": 18
          },
          "indices": 19,
          "material": 4,
          "mode": 4
        }
      ]
    },
    {
      "name": "Goomba_10 - Default_0",
      "primitives": [
        {
          "attributes": {
            "NORMAL": 21,
            "POSITION": 20,
            "TEXCOORD_0": 22
          },
          "indices": 23,
          "material": 5,
          "mode": 4
        }
      ]
    },
    {
      "name": "Goomba_11 - Default_0",
      "primitives": [
        {
          "attributes": {
            "NORMAL": 25,
            "POSITION": 24,
            "TEXCOORD_0": 26
          },
          "indices": 27,
          "material": 6,
          "mode": 4
        }
      ]
    }
  ],
  "nodes": [
    {
      "children": [
        1
      ],
      "matrix": [
        1.0,
        0.0,
        0.0,
        0.0,
        0.0,
        2.220446049250313e-16,
        -1.0,
        0.0,
        0.0,
        1.0,
        2.220446049250313e-16,
        0.0,
        0.0,
        0.0,
        0.0,
        1.0
      ],
      "name": "Sketchfab_model"
    },
    {
      "children": [
        2
      ],
      "matrix": [
        1.0,
        0.0,
        0.0,
        0.0,
        0.0,
        0.0,
        1.0,
        0.0,
        0.0,
        -1.0,
        0.0,
        0.0,
        0.0,
        0.0,
        0.0,
        1.0
      ],
      "name": "a7113f989fc341968b05ad9adcdbca97.fbx"
    },
    {
      "children": [
        3
      ],
      "name": "RootNode"
    },
    {
      "children": [
        4,
        5,
        6,
        7,
        8,
        9,
        10
      ],
      "matrix": [
        0.9137300252914429,
        0.0,
        0.0,
        0.0,
        0.0,
        0.999999999999999,
        4.371139006309476e-08,
        0.0,
        0.0,
        -3.406399074856128e-08,
        0.7792932391166679,
        0.0,
        4.290252685546875,
        48.467567443847656,
        0.4595032036304474,
        1.0
      ],
      "name": "Goomba"
    },
    {
      "mesh": 0,
      "name": "Goomba_14 - Default_0"
    },
    {
      "mesh": 1,
      "name": "Goomba_07 - Default_0"
    },
    {
      "mesh": 2,
      "name": "Goomba_01 - Default_0"
    },
    {
      "mesh": 3,
      "name": "Goomba_15 - Default_0"
    },
    {
      "mesh": 4,
      "name": "Goomba_04 - Default_0"
    },
    {
      "mesh": 5,
      "name": "Goomba_10 - Default_0"
    },
    {
      "mesh": 6,
      "name": "Goomba_11 - Default_0"
    }
  ],
  "scene": 0,
  "scenes": [
    {
      "name": "Sketchfab_Scene",
      "nodes": [
        0
      ]
    }
  ]
}
